<svg width="140" height="17" viewBox="0 0 140 17" fill="none" xmlns="http://www.w3.org/2000/svg">
<line x1="90" y1="9.50085" x2="140" y2="9.50085" stroke="#8B8371"/>
<path d="M0.608 14.7689L3.984 11.3289C4.86933 10.4115 5.54133 9.52085 6 8.65685C6.46933 7.78219 6.704 6.88085 6.704 5.95285C6.704 5.01419 6.50133 4.33152 6.096 3.90485C5.70133 3.46752 5.16267 3.24885 4.48 3.24885C3.94667 3.24885 3.48267 3.39285 3.088 3.68085C2.69333 3.96885 2.496 4.34752 2.496 4.81685C2.496 5.38219 2.77867 5.80352 3.344 6.08085C3.344 6.46485 3.22667 6.75819 2.992 6.96085C2.75733 7.16352 2.48 7.26485 2.16 7.26485C1.81867 7.26485 1.52533 7.14219 1.28 6.89685C1.03467 6.64085 0.912 6.29419 0.912 5.85685C0.912 5.28085 1.088 4.76885 1.44 4.32085C1.792 3.86219 2.26133 3.51019 2.848 3.26485C3.43467 3.00885 4.064 2.88085 4.736 2.88085C6.03733 2.88085 7.00267 3.19019 7.632 3.80885C8.26133 4.41685 8.576 5.22219 8.576 6.22485C8.576 6.83285 8.448 7.39285 8.192 7.90485C7.94667 8.40619 7.648 8.84352 7.296 9.21685C6.95467 9.59019 6.48533 10.0382 5.888 10.5609L5.44 10.9449L1.616 14.3209H7.584L8.24 11.9529H8.656V16.0009H0.608V14.7689ZM10.4205 14.7689L13.7965 11.3289C14.6818 10.4115 15.3538 9.52085 15.8125 8.65685C16.2818 7.78219 16.5165 6.88085 16.5165 5.95285C16.5165 5.01419 16.3138 4.33152 15.9085 3.90485C15.5138 3.46752 14.9752 3.24885 14.2925 3.24885C13.7592 3.24885 13.2952 3.39285 12.9005 3.68085C12.5058 3.96885 12.3085 4.34752 12.3085 4.81685C12.3085 5.38219 12.5912 5.80352 13.1565 6.08085C13.1565 6.46485 13.0392 6.75819 12.8045 6.96085C12.5698 7.16352 12.2925 7.26485 11.9725 7.26485C11.6312 7.26485 11.3378 7.14219 11.0925 6.89685C10.8472 6.64085 10.7245 6.29419 10.7245 5.85685C10.7245 5.28085 10.9005 4.76885 11.2525 4.32085C11.6045 3.86219 12.0738 3.51019 12.6605 3.26485C13.2472 3.00885 13.8765 2.88085 14.5485 2.88085C15.8498 2.88085 16.8152 3.19019 17.4445 3.80885C18.0738 4.41685 18.3885 5.22219 18.3885 6.22485C18.3885 6.83285 18.2605 7.39285 18.0045 7.90485C17.7592 8.40619 17.4605 8.84352 17.1085 9.21685C16.7672 9.59019 16.2978 10.0382 15.7005 10.5609L15.2525 10.9449L11.4285 14.3209H17.3965L18.0525 11.9529H18.4685V16.0009H10.4205V14.7689ZM29.0211 16.3209C28.0931 16.3209 27.2825 16.0702 26.5891 15.5689C25.8958 15.0675 25.3571 14.3155 24.9731 13.3129C24.5891 12.2995 24.3971 11.0622 24.3971 9.60085C24.3971 8.13952 24.5891 6.90752 24.9731 5.90485C25.3571 4.89152 25.8958 4.13419 26.5891 3.63285C27.2825 3.13152 28.0931 2.88085 29.0211 2.88085C29.9491 2.88085 30.7598 3.13152 31.4531 3.63285C32.1465 4.13419 32.6851 4.89152 33.0691 5.90485C33.4531 6.90752 33.6451 8.13952 33.6451 9.60085C33.6451 11.0622 33.4531 12.2995 33.0691 13.3129C32.6851 14.3155 32.1465 15.0675 31.4531 15.5689C30.7598 16.0702 29.9491 16.3209 29.0211 16.3209ZM29.0211 15.9529C29.8211 15.9529 30.4505 15.5635 30.9091 14.7849C31.3678 14.0062 31.5971 12.7902 31.5971 11.1369V8.04885C31.5971 6.40619 31.3678 5.19552 30.9091 4.41685C30.4505 3.63819 29.8211 3.24885 29.0211 3.24885C28.2211 3.24885 27.5918 3.63819 27.1331 4.41685C26.6745 5.19552 26.4451 6.40619 26.4451 8.04885V11.1369C26.4451 12.7795 26.6745 13.9955 27.1331 14.7849C27.5918 15.5635 28.2211 15.9529 29.0211 15.9529ZM40.1618 16.3209C39.2338 16.3209 38.4231 16.0702 37.7298 15.5689C37.0364 15.0675 36.4978 14.3155 36.1138 13.3129C35.7298 12.2995 35.5378 11.0622 35.5378 9.60085C35.5378 8.13952 35.7298 6.90752 36.1138 5.90485C36.4978 4.89152 37.0364 4.13419 37.7298 3.63285C38.4231 3.13152 39.2338 2.88085 40.1618 2.88085C41.0898 2.88085 41.9004 3.13152 42.5938 3.63285C43.2871 4.13419 43.8258 4.89152 44.2098 5.90485C44.5938 6.90752 44.7858 8.13952 44.7858 9.60085C44.7858 11.0622 44.5938 12.2995 44.2098 13.3129C43.8258 14.3155 43.2871 15.0675 42.5938 15.5689C41.9004 16.0702 41.0898 16.3209 40.1618 16.3209ZM40.1618 15.9529C40.9618 15.9529 41.5911 15.5635 42.0498 14.7849C42.5084 14.0062 42.7378 12.7902 42.7378 11.1369V8.04885C42.7378 6.40619 42.5084 5.19552 42.0498 4.41685C41.5911 3.63819 40.9618 3.24885 40.1618 3.24885C39.3618 3.24885 38.7324 3.63819 38.2738 4.41685C37.8151 5.19552 37.5858 6.40619 37.5858 8.04885V11.1369C37.5858 12.7795 37.8151 13.9955 38.2738 14.7849C38.7324 15.5635 39.3618 15.9529 40.1618 15.9529ZM51.3024 16.3209C50.3744 16.3209 49.5637 16.0702 48.8704 15.5689C48.177 15.0675 47.6384 14.3155 47.2544 13.3129C46.8704 12.2995 46.6784 11.0622 46.6784 9.60085C46.6784 8.13952 46.8704 6.90752 47.2544 5.90485C47.6384 4.89152 48.177 4.13419 48.8704 3.63285C49.5637 3.13152 50.3744 2.88085 51.3024 2.88085C52.2304 2.88085 53.041 3.13152 53.7344 3.63285C54.4277 4.13419 54.9664 4.89152 55.3504 5.90485C55.7344 6.90752 55.9264 8.13952 55.9264 9.60085C55.9264 11.0622 55.7344 12.2995 55.3504 13.3129C54.9664 14.3155 54.4277 15.0675 53.7344 15.5689C53.041 16.0702 52.2304 16.3209 51.3024 16.3209ZM51.3024 15.9529C52.1024 15.9529 52.7317 15.5635 53.1904 14.7849C53.649 14.0062 53.8784 12.7902 53.8784 11.1369V8.04885C53.8784 6.40619 53.649 5.19552 53.1904 4.41685C52.7317 3.63819 52.1024 3.24885 51.3024 3.24885C50.5024 3.24885 49.873 3.63819 49.4144 4.41685C48.9557 5.19552 48.7264 6.40619 48.7264 8.04885V11.1369C48.7264 12.7795 48.9557 13.9955 49.4144 14.7849C49.873 15.5635 50.5024 15.9529 51.3024 15.9529Z" fill="#1B1A17"/>
<path d="M67.0476 3.50085H71.0357C72.7254 3.50085 74.0952 4.87066 74.0952 6.5604C74.0952 8.25014 72.7254 9.61995 71.0357 9.61995H67.0476V3.50085Z" stroke="#1B1A17"/>
<path d="M67 9.50085H65" stroke="#1B1A17"/>
<path d="M67.0001 3.00085V16.0009M65.3096 12.6956H71.8096" stroke="#1B1A17"/>
</svg>
